<svg xmlns="http://www.w3.org/2000/svg" viewBox="0 0 880 478" width="880" height="478">
  <defs>
    <marker id="arr" markerWidth="7" markerHeight="7" refX="5" refY="3.5" orient="auto">
      <path d="M0,0.5 L0,6.5 L6,3.5 z" fill="#c45c26" opacity="0.75"/>
    </marker>
    <marker id="arr-d" markerWidth="7" markerHeight="7" refX="5" refY="3.5" orient="auto">
      <path d="M0,0.5 L0,6.5 L6,3.5 z" fill="#c45c26" opacity="0.45"/>
    </marker>
    <marker id="arr-m" markerWidth="7" markerHeight="7" refX="5" refY="3.5" orient="auto">
      <path d="M0,0.5 L0,6.5 L6,3.5 z" fill="#8b8f96" opacity="0.65"/>
    </marker>
    <style>
      text { font-family: system-ui, -apple-system, "Segoe UI", Arial, sans-serif; }
    </style>
  </defs>

  <!-- Background -->
  <rect width="880" height="478" fill="#faf9f6"/>

  <!-- ══ SWIM LANE 1: INDEXING ══ -->
  <rect x="10" y="12" width="858" height="183" rx="5" fill="#ffffff" stroke="#e5e2dc" stroke-width="1" stroke-dasharray="5,3"/>
  <text x="20" y="27" font-size="7.5" font-weight="700" letter-spacing="0.16em" fill="#8b8f96">KNOWLEDGE BASE INDEXING</text>

  <!-- [1] Data Sources -->
  <rect x="20" y="35" width="140" height="148" rx="4" fill="#fdf4ef" stroke="#c45c26" stroke-width="1.2"/>
  <rect x="20" y="35" width="4" height="148" rx="2" fill="#c45c26"/>
  <text x="33" y="50" font-size="7" font-weight="700" letter-spacing="0.14em" fill="#c45c26">DATA SOURCES</text>
  <line x1="33" y1="55" x2="152" y2="55" stroke="#e5e2dc" stroke-width="0.5"/>
  <text x="33" y="73" font-size="11" fill="#1a1a1a">OEM Manuals</text>
  <text x="33" y="89" font-size="11" fill="#1a1a1a">&#38; SOPs</text>
  <text x="33" y="111" font-size="11" fill="#1a1a1a">Work Order</text>
  <text x="33" y="127" font-size="11" fill="#1a1a1a">History</text>
  <text x="33" y="149" font-size="11" fill="#1a1a1a">Fault Code</text>
  <text x="33" y="165" font-size="11" fill="#1a1a1a">Library</text>

  <!-- Arrow 1→2 -->
  <line x1="162" y1="109" x2="179" y2="109" stroke="#c45c26" stroke-width="1.4" marker-end="url(#arr)" opacity="0.65"/>

  <!-- [2] Ingestion -->
  <rect x="181" y="43" width="148" height="130" rx="4" fill="#ffffff" stroke="#e5e2dc" stroke-width="1"/>
  <rect x="181" y="43" width="4" height="130" rx="2" fill="#c45c26" opacity="0.6"/>
  <text x="194" y="58" font-size="7" font-weight="700" letter-spacing="0.14em" fill="#c45c26">INGESTION</text>
  <line x1="194" y1="63" x2="322" y2="63" stroke="#e5e2dc" stroke-width="0.5"/>
  <text x="194" y="81" font-size="11" font-weight="600" fill="#1a1a1a">Semantic chunking</text>
  <text x="194" y="97" font-size="10" fill="#5c5c5c">Narrative documents</text>
  <text x="194" y="117" font-size="11" font-weight="600" fill="#1a1a1a">Structured extraction</text>
  <text x="194" y="133" font-size="10" fill="#5c5c5c">Tabular fault code data</text>
  <text x="194" y="158" font-size="9.5" fill="#8b8f96">Hybrid chunking strategy</text>

  <!-- Arrow 2→3 -->
  <line x1="331" y1="108" x2="348" y2="108" stroke="#c45c26" stroke-width="1.4" marker-end="url(#arr)" opacity="0.65"/>

  <!-- [3] Embeddings -->
  <rect x="350" y="43" width="155" height="130" rx="4" fill="#ffffff" stroke="#e5e2dc" stroke-width="1"/>
  <rect x="350" y="43" width="4" height="130" rx="2" fill="#c45c26" opacity="0.4"/>
  <text x="363" y="58" font-size="7" font-weight="700" letter-spacing="0.14em" fill="#c45c26">EMBEDDINGS</text>
  <line x1="363" y1="63" x2="498" y2="63" stroke="#e5e2dc" stroke-width="0.5"/>
  <text x="363" y="81" font-size="11" font-weight="600" fill="#1a1a1a">text-embedding-3-large</text>
  <text x="363" y="97" font-size="10" fill="#5c5c5c">AWS Bedrock</text>
  <text x="363" y="119" font-size="10" fill="#5c5c5c">Same model for indexing</text>
  <text x="363" y="134" font-size="10" fill="#5c5c5c">+ query encoding</text>
  <text x="363" y="158" font-size="9.5" fill="#8b8f96">Semantic consistency</text>

  <!-- Arrow 3→4 -->
  <line x1="507" y1="108" x2="524" y2="108" stroke="#c45c26" stroke-width="1.4" marker-end="url(#arr)" opacity="0.65"/>

  <!-- [4] Vector Store -->
  <rect x="526" y="52" width="152" height="112" rx="4" fill="#ffffff" stroke="#e5e2dc" stroke-width="1"/>
  <rect x="526" y="52" width="4" height="112" rx="2" fill="#c45c26" opacity="0.22"/>
  <text x="539" y="67" font-size="7" font-weight="700" letter-spacing="0.14em" fill="#c45c26">VECTOR STORE</text>
  <line x1="539" y1="72" x2="671" y2="72" stroke="#e5e2dc" stroke-width="0.5"/>
  <text x="539" y="90" font-size="11" font-weight="600" fill="#1a1a1a">pgvector</text>
  <text x="539" y="107" font-size="11" font-weight="600" fill="#1a1a1a">PostgreSQL</text>
  <text x="539" y="129" font-size="10" fill="#5c5c5c">Tenant-isolated</text>
  <text x="539" y="145" font-size="10" fill="#5c5c5c">partitioned per customer</text>

  <!-- Cross-lane arrow: Vector Store bottom → Retrieval top (L-shaped) -->
  <polyline points="602,166 602,195 265,195 265,225"
    fill="none" stroke="#c45c26" stroke-width="1.3" stroke-dasharray="4,2.5"
    marker-end="url(#arr-d)" opacity="0.55"/>
  <text x="375" y="192" font-size="8" fill="#c45c26" opacity="0.65">query-time lookup</text>

  <!-- ══ SWIM LANE 2: RUNTIME ══ -->
  <rect x="10" y="203" width="858" height="188" rx="5" fill="#ffffff" stroke="#e5e2dc" stroke-width="1"/>
  <text x="20" y="218" font-size="7.5" font-weight="700" letter-spacing="0.16em" fill="#8b8f96">RUNTIME QUERY PATH</text>

  <!-- [5] CMMS Context -->
  <rect x="20" y="225" width="140" height="153" rx="4" fill="#fdf4ef" stroke="#c45c26" stroke-width="1.2"/>
  <rect x="20" y="225" width="4" height="153" rx="2" fill="#c45c26"/>
  <text x="33" y="240" font-size="7" font-weight="700" letter-spacing="0.14em" fill="#c45c26">CMMS CONTEXT</text>
  <line x1="33" y1="245" x2="152" y2="245" stroke="#e5e2dc" stroke-width="0.5"/>
  <text x="33" y="263" font-size="11" fill="#1a1a1a">Work order view</text>
  <text x="33" y="281" font-size="11" fill="#1a1a1a">Asset ID + fault code</text>
  <text x="33" y="299" font-size="11" fill="#1a1a1a">Location history</text>
  <text x="33" y="317" font-size="11" fill="#1a1a1a">Last 3 work orders</text>
  <text x="33" y="348" font-size="9.5" fill="#8b8f96">Auto-loaded as</text>
  <text x="33" y="363" font-size="9.5" fill="#8b8f96">structured metadata</text>

  <!-- Arrow 5→6 -->
  <line x1="162" y1="301" x2="179" y2="301" stroke="#c45c26" stroke-width="1.4" marker-end="url(#arr)" opacity="0.65"/>

  <!-- [6] Retrieval -->
  <rect x="181" y="225" width="163" height="153" rx="4" fill="#ffffff" stroke="#e5e2dc" stroke-width="1"/>
  <rect x="181" y="225" width="4" height="153" rx="2" fill="#c45c26" opacity="0.6"/>
  <text x="194" y="240" font-size="7" font-weight="700" letter-spacing="0.14em" fill="#c45c26">RETRIEVAL</text>
  <line x1="194" y1="245" x2="337" y2="245" stroke="#e5e2dc" stroke-width="0.5"/>
  <text x="194" y="263" font-size="11" font-weight="600" fill="#1a1a1a">BM25 sparse search</text>
  <text x="194" y="281" font-size="11" font-weight="600" fill="#1a1a1a">Dense vector search</text>
  <text x="194" y="299" font-size="11" font-weight="600" fill="#1a1a1a">Hybrid merge</text>
  <text x="194" y="317" font-size="11" font-weight="600" fill="#1a1a1a">Cross-encoder rerank</text>
  <text x="194" y="347" font-size="9.5" fill="#8b8f96">Top-k context chunks</text>
  <text x="194" y="362" font-size="9.5" fill="#8b8f96">selected for prompt</text>

  <!-- Arrow 6→7 -->
  <line x1="346" y1="301" x2="363" y2="301" stroke="#c45c26" stroke-width="1.4" marker-end="url(#arr)" opacity="0.65"/>

  <!-- [7] LangChain -->
  <rect x="365" y="232" width="143" height="138" rx="4" fill="#ffffff" stroke="#e5e2dc" stroke-width="1"/>
  <rect x="365" y="232" width="4" height="138" rx="2" fill="#c45c26" opacity="0.4"/>
  <text x="378" y="247" font-size="7" font-weight="700" letter-spacing="0.14em" fill="#c45c26">LANGCHAIN</text>
  <line x1="378" y1="252" x2="501" y2="252" stroke="#e5e2dc" stroke-width="0.5"/>
  <text x="378" y="270" font-size="11" font-weight="600" fill="#1a1a1a">Prompt assembly</text>
  <text x="378" y="288" font-size="11" font-weight="600" fill="#1a1a1a">Context composition</text>
  <text x="378" y="306" font-size="11" font-weight="600" fill="#1a1a1a">Versioned templates</text>
  <text x="378" y="331" font-size="9.5" fill="#8b8f96">Safety instructions</text>
  <text x="378" y="346" font-size="9.5" fill="#8b8f96">+ citation requirements</text>
  <text x="378" y="361" font-size="9.5" fill="#8b8f96">baked into prompt</text>

  <!-- Arrow 7→8 -->
  <line x1="510" y1="301" x2="527" y2="301" stroke="#c45c26" stroke-width="1.4" marker-end="url(#arr)" opacity="0.65"/>

  <!-- [8] LLM -->
  <rect x="529" y="232" width="143" height="138" rx="4" fill="#ffffff" stroke="#e5e2dc" stroke-width="1"/>
  <rect x="529" y="232" width="4" height="138" rx="2" fill="#c45c26" opacity="0.22"/>
  <text x="542" y="247" font-size="7" font-weight="700" letter-spacing="0.14em" fill="#c45c26">LLM</text>
  <line x1="542" y1="252" x2="665" y2="252" stroke="#e5e2dc" stroke-width="0.5"/>
  <text x="542" y="270" font-size="11" font-weight="600" fill="#1a1a1a">AWS Bedrock</text>
  <text x="542" y="288" font-size="11" font-weight="600" fill="#1a1a1a">GPT-4 class</text>
  <text x="542" y="306" font-size="11" fill="#5c5c5c">+ smaller fallback</text>
  <text x="542" y="331" font-size="9.5" fill="#8b8f96">Source citations</text>
  <text x="542" y="346" font-size="9.5" fill="#8b8f96">required in output</text>
  <text x="542" y="361" font-size="9.5" fill="#8b8f96">Prompt versioned in git</text>

  <!-- Arrow 8→9 -->
  <line x1="674" y1="301" x2="691" y2="301" stroke="#c45c26" stroke-width="1.4" marker-end="url(#arr)" opacity="0.65"/>

  <!-- [9] Copilot Panel -->
  <rect x="693" y="225" width="157" height="153" rx="4" fill="#fdf4ef" stroke="#c45c26" stroke-width="1.2"/>
  <rect x="693" y="225" width="4" height="153" rx="2" fill="#c45c26"/>
  <text x="706" y="240" font-size="7" font-weight="700" letter-spacing="0.14em" fill="#c45c26">COPILOT PANEL</text>
  <line x1="706" y1="245" x2="843" y2="245" stroke="#e5e2dc" stroke-width="0.5"/>
  <text x="706" y="263" font-size="11" fill="#1a1a1a">Inline work order view</text>
  <text x="706" y="281" font-size="11" fill="#1a1a1a">Response streaming</text>
  <text x="706" y="299" font-size="11" fill="#1a1a1a">Source attribution</text>
  <text x="706" y="317" font-size="11" fill="#1a1a1a">Auto-draft WO notes</text>
  <text x="706" y="345" font-size="9.5" fill="#8b8f96">&#128077; &#128078; per response</text>
  <text x="706" y="361" font-size="9.5" fill="#8b8f96">routes to review queue</text>

  <!-- Down arrows: LLM + Copilot → observability -->
  <line x1="600" y1="373" x2="600" y2="398" stroke="#8b8f96" stroke-width="1" stroke-dasharray="3,2" marker-end="url(#arr-m)" opacity="0.45"/>
  <line x1="771" y1="380" x2="771" y2="398" stroke="#8b8f96" stroke-width="1" stroke-dasharray="3,2" marker-end="url(#arr-m)" opacity="0.45"/>

  <!-- ══ SWIM LANE 3: OBSERVABILITY ══ -->
  <rect x="10" y="400" width="858" height="70" rx="5" fill="#ffffff" stroke="#e5e2dc" stroke-width="1" stroke-dasharray="5,3"/>
  <text x="20" y="415" font-size="7.5" font-weight="700" letter-spacing="0.16em" fill="#8b8f96">OBSERVABILITY &#38; EVALUATION</text>

  <!-- Langfuse -->
  <rect x="25" y="421" width="195" height="40" rx="3" fill="#fff" stroke="#e5e2dc" stroke-width="1"/>
  <text x="38" y="437" font-size="8" font-weight="700" letter-spacing="0.12em" fill="#8b8f96">LANGFUSE</text>
  <text x="38" y="452" font-size="10" fill="#5c5c5c">Traces · latency · cost · p50/p95</text>

  <!-- Ragas -->
  <rect x="237" y="421" width="240" height="40" rx="3" fill="#fff" stroke="#e5e2dc" stroke-width="1"/>
  <text x="250" y="437" font-size="8" font-weight="700" letter-spacing="0.12em" fill="#8b8f96">RAGAS EVALUATION</text>
  <text x="250" y="452" font-size="10" fill="#5c5c5c">Faithfulness · relevancy · context precision</text>

  <!-- User Feedback -->
  <rect x="494" y="421" width="355" height="40" rx="3" fill="#fff" stroke="#e5e2dc" stroke-width="1"/>
  <text x="507" y="437" font-size="8" font-weight="700" letter-spacing="0.12em" fill="#8b8f96">USER FEEDBACK LOOP</text>
  <text x="507" y="452" font-size="10" fill="#5c5c5c">&#128077; &#128078; per response · LLM-as-judge · human review queue · feeds retrieval tuning</text>

</svg>
